<?xml version="1.0" encoding="UTF-8"?>
<svg xmlns="http://www.w3.org/2000/svg" viewBox="404 154 647 821" role="img" aria-label="Neil's Patty Club">
<path fill="#F5EBD7" fill-rule="evenodd" d="M934.00 911.00 L933.67 943.33 L934.00 946.33 L936.67 953.00 L940.67 957.67 L945.67 959.67 L951.33 960.33 L956.33 960.00 L960.00 958.67 L960.67 957.67 L962.00 957.67 L964.67 955.00 L965.00 953.33 L966.67 952.33 L969.33 944.00 L968.67 911.00 L956.00 911.00 L955.00 944.67 L949.67 946.67 L948.67 946.33 L947.67 942.67 L946.67 911.00ZM872.00 911.00 L872.00 960.67 L902.33 960.67 L905.00 960.00 L902.67 959.67 L902.67 948.00 L884.67 947.67 L884.67 911.00ZM684.00 911.00 L684.67 915.67 L686.00 918.33 L685.33 924.00 L687.00 926.67 L690.00 927.00 L692.33 932.67 L693.67 947.33 L694.00 959.67 L708.67 959.67 L708.67 958.67 L711.67 955.33 L711.33 942.33 L712.00 937.33 L713.33 933.33 L713.33 929.67 L717.67 917.67 L719.00 916.67 L720.67 911.00 L708.00 911.00 L707.67 912.00 L706.67 912.00 L704.33 921.33 L702.67 925.00 L700.67 924.67 L699.00 916.33 L697.67 913.00 L697.00 913.00 L695.67 911.00ZM549.00 911.00 L549.00 922.67 L559.00 923.00 L559.00 959.67 L571.67 959.67 L571.67 923.00 L581.67 922.67 L581.67 911.00ZM492.67 911.00 L490.33 919.67 L489.00 929.67 L487.67 930.33 L486.67 937.67 L485.67 938.00 L482.33 952.33 L482.00 957.00 L481.00 959.67 L493.67 959.67 L495.00 953.67 L506.67 953.67 L508.00 959.67 L521.67 959.67 L521.67 956.00 L517.00 939.33 L516.67 932.00 L517.67 929.00 L515.33 927.33 L514.00 922.67 L510.67 915.00 L510.00 911.00ZM418.00 911.00 L418.00 959.67 L430.67 959.67 L430.67 945.00 L439.33 945.00 L442.33 944.33 L443.00 945.33 L444.00 945.33 L449.00 943.00 L449.33 940.33 L452.00 937.33 L454.00 925.33 L453.33 921.67 L452.33 919.33 L444.67 912.67 L441.67 911.67 L436.67 911.00ZM440.67 925.33 L439.67 932.00 L434.33 932.67 L432.00 932.33 L432.67 927.00 L434.67 925.67 L435.00 923.67 L437.00 923.33ZM613.67 910.33 L613.00 911.67 L613.00 920.67 L615.00 920.67 L616.00 922.67 L626.00 923.00 L626.00 959.67 L638.67 959.00 L639.67 923.00 L649.67 922.67 L649.67 911.00 L649.00 911.00 L648.67 910.00ZM812.67 910.00 L811.00 912.00 L811.00 914.67 L807.67 919.00 L805.67 923.00 L804.00 929.00 L803.67 939.00 L805.33 941.67 L806.00 944.33 L806.00 948.67 L810.00 955.33 L814.67 959.33 L821.00 960.67 L831.67 961.67 L832.33 958.67 L834.67 957.00 L838.00 953.00 L839.33 949.67 L839.67 945.67 L828.00 943.00 L826.00 946.00 L823.00 946.00 L821.33 944.67 L819.33 937.67 L818.67 928.33 L819.33 926.67 L820.67 925.67 L828.67 926.33 L829.00 925.67 L832.67 925.33 L836.67 924.00 L839.67 921.67 L839.67 919.67 L834.67 913.67 L830.00 911.00 L829.67 910.00 L820.67 909.00 L816.00 909.00ZM1024.00 908.33 L1021.67 909.33 L1001.00 910.00 L1001.00 959.67 L1021.00 960.33 L1028.33 959.00 L1032.67 956.67 L1034.67 954.33 L1035.33 951.33 L1036.00 950.67 L1037.67 950.67 L1038.33 946.33 L1037.33 943.00 L1036.67 936.00 L1034.00 936.67 L1033.67 935.67 L1032.00 935.00 L1030.00 933.00 L1032.00 927.33 L1032.00 919.00 L1030.00 915.00 L1026.67 913.00 L1026.67 911.00ZM1014.67 940.00 L1021.67 939.67 L1022.33 940.33 L1023.00 943.67 L1022.33 944.33 L1016.00 946.00 L1015.33 945.00ZM735.67 759.00 L734.67 761.33 L735.00 874.67 L809.67 874.67 L809.67 859.67 L808.67 847.00 L766.67 846.67 L766.67 759.00ZM694.00 759.00 L694.00 874.67 L724.67 874.67 L724.67 759.00ZM610.00 759.00 L610.00 874.67 L683.67 874.67 L683.67 846.00 L641.67 845.67 L642.00 829.67 L672.67 829.67 L672.67 801.00 L642.00 801.00 L641.67 788.00 L683.67 787.67 L683.67 759.00ZM507.00 759.00 L507.00 874.67 L538.67 874.67 L538.67 826.00 L541.00 825.00 L543.00 825.33 L543.00 827.67 L546.00 828.00 L546.67 830.33 L546.33 832.00 L547.67 834.67 L548.00 840.67 L550.00 841.00 L548.33 845.67 L553.00 846.67 L555.00 852.00 L558.33 857.33 L560.00 864.33 L565.00 874.67 L599.67 874.67 L599.67 759.00 L568.00 759.00 L567.00 794.67 L568.00 795.00 L568.00 805.00 L566.67 809.00 L564.00 809.00 L562.67 805.67 L560.00 803.00 L554.33 786.67 L548.00 772.67 L545.33 769.33 L541.67 759.00ZM851.67 757.00 L824.67 757.00 L824.00 760.33 L818.00 775.67 L816.67 775.67 L815.00 780.00 L814.67 783.00 L811.00 793.67 L835.00 793.67 L837.67 786.67 L849.00 764.67ZM896.67 757.00 L892.00 758.00 L887.00 760.00 L882.00 760.67 L877.67 763.33 L875.33 767.33 L872.33 768.00 L873.67 768.67 L873.33 770.67 L871.67 774.00 L868.67 777.00 L867.67 779.00 L866.67 785.00 L866.00 786.00 L865.33 791.67 L865.67 800.33 L867.00 804.67 L869.67 804.67 L875.33 812.00 L880.00 816.67 L883.67 819.00 L885.00 821.00 L891.33 824.67 L899.33 828.00 L901.67 830.33 L909.00 834.33 L911.67 837.33 L913.00 841.67 L907.67 845.00 L900.00 845.00 L899.67 843.00 L897.67 842.67 L897.67 840.00 L893.00 840.00 L893.00 841.00 L892.00 841.33 L885.00 835.00 L884.00 835.00 L881.33 836.33 L879.67 836.33 L872.00 843.67 L871.67 844.67 L866.67 848.33 L865.00 848.67 L862.00 852.33 L861.00 855.00 L866.00 860.00 L866.00 862.67 L869.00 863.67 L869.00 866.67 L873.33 867.33 L874.00 868.00 L874.00 869.67 L875.33 870.33 L878.00 870.00 L879.33 871.00 L888.00 874.00 L897.33 876.00 L918.33 877.33 L924.33 874.00 L924.67 872.67 L931.00 869.00 L934.33 866.00 L937.00 866.33 L939.00 863.67 L939.00 860.67 L942.33 855.33 L945.00 846.33 L945.33 835.33 L944.67 831.33 L943.00 826.33 L940.00 821.00 L933.67 813.67 L922.33 805.33 L908.67 799.33 L908.67 797.67 L899.33 792.33 L899.00 789.00 L902.00 788.67 L906.67 789.33 L908.00 790.00 L908.67 792.00 L911.00 792.67 L913.33 791.33 L915.67 793.67 L917.00 793.67 L925.33 791.33 L927.33 790.00 L932.33 790.33 L939.00 788.33 L943.33 784.33 L944.67 784.00 L944.67 782.67 L942.67 777.67 L939.00 773.00 L935.67 770.67 L928.00 763.33 L926.00 762.33 L925.67 760.00 L923.00 760.00 L922.67 758.00 L920.00 757.00 L909.33 757.00 L904.33 756.33ZM683.67 501.00 L678.33 503.00 L676.67 503.00 L672.67 507.00 L668.67 509.33 L667.33 509.33 L663.67 506.00 L662.00 505.33 L661.00 505.67 L662.67 511.67 L666.67 515.67 L668.00 515.67 L669.00 514.67 L671.00 515.33 L675.33 511.00 L675.00 510.00 L683.67 504.00ZM811.33 503.33 L810.67 499.00 L809.67 499.00 L802.33 505.33 L799.00 506.67 L789.67 501.67 L783.00 500.00 L784.67 503.67 L795.67 509.00 L798.33 512.00 L799.67 512.67 L801.33 512.00 L803.67 509.00 L808.33 508.67 L808.67 507.33 L810.33 506.00ZM689.00 378.00 L684.00 378.33 L686.67 378.67ZM715.67 377.67 L719.33 377.67ZM708.00 377.33 L713.67 377.33ZM649.67 349.00 L647.00 349.00 L645.33 350.00 L640.67 355.00 L639.33 358.67 L643.00 358.67 L645.67 355.67 L646.33 355.67 L648.00 353.67ZM822.00 344.00 L825.33 350.67 L825.00 352.00 L828.33 359.00 L830.00 368.67 L832.67 369.67 L832.67 369.00 L833.67 368.67 L833.67 359.67 L833.00 356.33 L831.67 355.33 L825.67 345.67 L824.00 344.33ZM680.67 334.67 L676.00 334.33 L674.67 335.00 L665.33 343.33 L664.33 345.67 L663.00 346.67 L662.00 349.67 L660.67 350.00 L659.67 351.67 L659.00 356.67 L662.33 356.33 L664.33 353.67 L664.33 351.67 L665.67 351.00 L665.67 349.67 L667.67 347.33 L669.00 347.33 L673.67 344.67 L678.67 339.33 L678.67 338.00 L680.67 337.00ZM740.00 334.00 L740.00 337.67 L745.00 338.67 L745.33 339.67 L758.00 344.67 L767.00 349.33 L774.00 355.00 L776.67 356.33 L779.67 356.67 L779.67 354.00 L778.67 352.00 L773.67 346.33 L769.33 343.67 L768.67 341.67 L766.67 339.33 L763.67 338.33 L755.67 338.33 L746.67 335.00ZM645.67 328.00 L641.67 328.00 L635.00 332.67 L633.00 335.00 L632.00 338.67 L637.00 336.00 L638.67 336.33 L642.33 334.00 L644.67 331.67ZM767.00 320.00 L767.00 322.67 L768.00 324.67 L774.33 329.00 L777.33 329.67 L783.00 332.33 L783.33 333.67 L784.33 334.33 L786.00 334.33 L792.33 337.67 L793.00 337.33 L792.67 334.33 L790.33 332.33 L786.33 330.00 L783.00 329.00 L782.00 327.67 L779.00 327.00 L778.67 324.67 L776.00 323.33 L775.00 323.67 L770.00 320.67ZM780.67 312.00 L780.00 315.00 L788.00 319.67 L792.67 320.67 L797.33 324.33 L799.00 324.33 L799.67 320.67 L792.67 315.67 L790.33 314.67 L789.67 313.67ZM780.67 215.00 L776.67 213.33 L775.67 212.33 L776.33 210.67 L772.67 209.33 L768.00 209.00 L760.00 210.00 L759.67 210.67 L757.33 211.33 L756.00 213.00 L754.67 213.00 L752.33 216.00 L750.00 221.00 L749.67 229.33 L748.67 229.67 L747.67 222.00 L746.00 221.67 L744.33 215.00 L743.00 213.33 L739.00 212.00 L738.67 211.00 L737.67 210.67 L717.00 211.00 L717.00 272.67 L729.67 272.67 L729.67 252.00 L739.67 251.67 L740.00 253.00 L742.00 252.67 L743.00 254.67 L745.67 254.67 L745.67 246.00 L746.33 245.33 L748.67 245.00 L748.67 261.00 L749.00 262.67 L750.33 264.00 L752.67 268.67 L756.00 271.33 L759.67 272.67 L760.00 273.67 L763.67 274.67 L771.00 275.67 L774.33 274.00 L776.67 271.67 L776.67 270.00 L779.33 267.00 L781.00 263.67 L781.00 252.33 L780.67 251.00 L769.00 251.00 L768.00 252.00 L767.00 255.67 L765.33 255.67 L763.67 254.67 L762.67 224.00 L767.33 223.67 L768.00 224.33 L767.67 230.67 L768.33 233.00 L770.00 234.67 L771.33 235.00 L770.00 234.00 L770.00 233.33 L772.67 232.33 L779.00 232.67 L779.00 234.00 L778.33 234.33 L781.67 232.67 L781.67 220.33ZM731.00 232.67 L735.00 233.00 L734.67 238.00 L730.67 236.67ZM748.00 170.67 L731.00 167.67 L718.67 168.33 L704.00 171.67 L703.67 173.33 L697.33 176.33 L693.67 177.00 L693.00 178.00 L691.33 178.00 L688.67 180.00 L688.33 181.67 L683.67 185.33 L682.67 185.00 L681.00 186.67 L681.00 187.67 L671.33 197.00 L669.33 201.67 L665.33 206.67 L662.67 212.33 L660.00 221.00 L658.33 224.33 L658.67 226.00 L653.33 231.33 L651.00 230.33 L651.00 231.67 L649.00 232.00 L649.00 233.00 L647.67 234.00 L646.00 234.00 L645.67 235.67 L640.00 235.33 L639.67 237.00 L624.00 237.00 L623.67 238.33 L601.00 239.00 L600.00 247.67 L598.67 247.67 L598.33 253.67 L595.33 260.67 L594.00 261.00 L593.67 262.00 L592.00 262.00 L591.33 262.67 L590.33 266.67 L588.00 267.00 L586.33 270.67 L584.00 271.00 L581.33 275.67 L576.67 279.00 L575.33 279.00 L571.00 281.00 L568.00 281.67 L559.67 282.00 L556.00 283.00 L556.00 659.67 L567.00 662.33 L569.67 662.00 L573.67 663.00 L580.33 666.00 L582.00 667.33 L582.00 669.67 L584.33 671.33 L585.33 673.67 L586.67 675.00 L590.00 676.00 L590.00 677.67 L591.00 677.33 L592.00 678.33 L594.33 682.67 L597.67 694.33 L598.67 704.67 L854.67 704.67 L855.67 694.67 L857.33 687.67 L858.67 686.67 L859.33 683.33 L862.00 682.33 L867.33 673.00 L870.33 671.67 L873.33 668.33 L874.00 666.67 L878.33 664.33 L884.33 662.33 L895.67 661.00 L898.67 660.00 L898.67 283.67 L897.00 282.67 L885.00 281.00 L877.67 278.67 L870.00 273.00 L865.67 268.67 L860.67 261.33 L857.00 251.67 L856.00 246.33 L856.00 247.67 L854.67 247.67 L854.00 239.00 L829.00 238.67 L828.67 237.00 L816.00 237.00 L815.67 235.00 L813.00 233.33 L808.00 234.00 L804.00 233.00 L801.67 230.67 L794.00 215.00 L792.67 211.00 L792.67 208.67 L782.67 193.33 L777.67 190.00 L774.00 186.00 L774.33 184.67 L773.67 184.00 L772.00 184.33 L764.00 179.00 L763.67 178.00 L760.00 177.00 L759.67 174.67 L757.67 174.67 L749.00 172.00ZM592.67 626.00 L594.00 625.33 L596.00 620.67 L596.67 616.67 L599.67 613.00 L599.67 611.67 L603.00 607.67 L605.00 607.00 L612.67 607.67 L613.00 608.67 L618.33 610.33 L625.33 611.00 L628.67 610.67 L629.67 612.00 L661.67 614.33 L735.67 612.67 L736.00 611.67 L757.00 611.67 L796.67 609.67 L797.00 608.67 L817.00 607.33 L855.00 607.67 L856.67 610.33 L860.00 624.67 L860.33 640.33 L859.33 649.33 L857.67 655.67 L856.67 656.00 L856.00 657.67 L852.33 660.67 L849.00 662.33 L845.67 663.00 L832.67 663.00 L807.33 666.00 L801.33 666.00 L794.00 665.00 L785.00 665.00 L783.33 665.67 L781.67 667.33 L770.00 668.00 L718.33 668.33 L695.00 667.67 L661.00 665.67 L644.67 663.33 L627.00 662.00 L626.67 661.00 L620.33 660.33 L619.67 659.67 L619.67 658.00 L613.00 658.00 L612.67 658.67 L611.00 658.67 L601.00 656.00 L600.00 653.67 L598.33 653.33 L596.00 650.67 L593.67 645.33 L592.67 640.67ZM752.00 551.00 L778.00 550.67 L810.33 552.00 L833.67 552.00 L836.33 551.33 L836.67 553.67 L836.00 557.33 L833.33 560.00 L831.00 561.00 L828.00 561.00 L827.67 559.00 L821.33 559.67 L816.33 558.00 L812.00 558.00 L810.00 558.67 L810.00 559.67 L808.33 561.00 L808.33 564.67 L805.00 570.33 L800.67 574.00 L794.00 577.67 L793.67 578.67 L790.00 579.00 L782.00 577.67 L776.00 575.00 L775.33 574.33 L774.67 570.00 L772.67 569.67 L772.67 567.00 L768.00 566.33 L767.67 562.00 L764.33 560.67 L763.33 559.67 L762.67 557.00 L759.33 556.33 L757.33 556.67 L756.67 556.00 L756.67 554.00 L753.00 553.33ZM606.67 546.67 L608.33 543.00 L610.33 543.33 L614.67 541.33 L618.67 540.67 L628.00 540.67 L629.00 542.67 L639.33 544.33 L640.00 545.00 L640.00 546.67 L642.00 547.33 L643.67 547.33 L650.33 545.00 L656.67 544.67 L657.00 546.67 L671.67 547.67 L686.67 547.67 L687.00 547.00 L706.67 547.67 L707.00 549.00 L698.00 551.67 L692.33 555.00 L689.00 558.67 L684.67 566.33 L678.33 571.67 L674.67 573.00 L663.67 572.33 L661.33 571.00 L655.00 570.33 L653.33 569.00 L652.33 569.00 L648.67 565.00 L648.33 563.33 L644.00 558.67 L640.33 550.67 L639.33 549.67 L633.00 550.00 L631.33 549.33 L628.67 549.33 L626.00 551.00 L625.67 553.00 L621.00 553.00 L621.00 554.67 L619.00 555.00 L615.33 554.33 L612.67 552.00 L608.00 553.00 L607.33 552.33ZM617.67 510.00 L618.67 510.33 L618.33 512.00 L617.00 511.67ZM635.00 497.33 L635.00 504.00 L634.33 504.67 L631.00 505.67 L623.67 511.00 L623.00 511.00 L622.67 510.00 L620.33 509.67 L620.33 508.33 L623.00 506.33 L627.33 501.33 L633.67 497.00ZM843.00 495.67 L846.33 496.33 L847.33 497.33 L848.00 500.67 L847.67 501.67 L845.33 501.33 L843.67 498.33 L842.00 498.33ZM796.33 488.00 L798.33 487.67 L798.67 488.67 L796.67 489.00ZM637.00 490.00 L636.67 492.00 L634.00 492.33 L625.00 498.67 L619.33 504.00 L618.67 504.00 L616.33 506.67 L613.67 512.00 L611.67 511.67 L611.67 497.67 L614.33 491.67 L615.33 492.33 L616.33 490.33 L620.67 489.67 L621.00 487.67 L622.67 487.67 L623.00 489.33 L624.67 487.67 L626.00 487.67 L630.00 489.00ZM638.00 500.67 L639.67 494.67 L645.67 494.67 L647.67 492.33 L652.67 490.33 L657.00 490.00 L662.33 491.00 L674.67 491.67 L675.00 492.67 L691.67 491.67 L692.00 492.67 L701.67 493.67 L703.67 491.00 L710.67 490.67 L711.00 488.00 L712.67 487.67 L713.00 487.00 L720.67 483.33 L724.33 483.33 L725.00 484.00 L725.00 485.67 L749.33 485.00 L764.33 488.67 L772.00 488.67 L773.00 489.33 L773.00 490.67 L795.00 491.00 L801.67 490.33 L806.67 489.00 L807.00 490.67 L818.33 490.67 L822.00 491.33 L825.67 490.33 L832.00 487.33 L838.67 486.67 L844.33 491.33 L845.00 494.00 L844.33 495.33 L841.67 496.00 L832.00 496.00 L831.67 496.67 L829.00 497.67 L825.33 501.00 L823.67 501.00 L823.00 502.67 L818.33 506.33 L818.33 507.33 L807.67 518.33 L806.00 521.67 L803.00 522.00 L802.67 524.00 L796.00 523.00 L780.67 510.33 L778.00 509.33 L777.33 508.00 L775.33 506.67 L774.67 503.00 L766.00 502.33 L762.00 500.00 L761.67 498.00 L760.00 498.00 L759.33 497.33 L758.67 494.00 L752.00 495.00 L748.00 493.00 L739.00 490.67 L732.67 490.67 L728.33 491.67 L721.00 495.67 L714.33 498.00 L704.00 503.67 L703.33 504.67 L699.00 506.33 L696.33 506.00 L693.33 507.33 L681.67 518.67 L679.67 519.00 L672.67 527.00 L671.67 527.00 L670.67 526.00 L667.00 527.00 L666.67 525.00 L663.00 523.33 L662.67 521.00 L660.67 520.67 L657.00 514.00 L653.33 509.33 L646.67 503.67 L646.67 502.00 L639.00 501.33ZM641.00 456.00 L640.67 458.00 L634.67 459.33 L623.33 465.67 L619.67 470.00 L617.67 470.00 L616.00 471.67 L614.33 472.00 L609.67 471.67 L608.67 468.00 L608.67 465.33 L610.00 464.67 L610.67 461.67 L612.67 461.67 L613.33 459.33 L613.00 456.00 L614.33 454.67 L616.00 455.67 L624.00 453.00 L630.67 453.67 L631.00 454.67 L639.33 455.33ZM759.67 446.00 L773.67 445.67 L778.67 446.67 L779.00 448.00 L797.33 449.67 L811.67 453.33 L821.67 455.00 L829.33 458.00 L839.33 460.33 L843.00 463.00 L844.00 465.67 L843.33 474.00 L842.67 475.00 L841.00 475.00 L841.67 477.67 L843.00 478.67 L843.00 479.33 L841.00 481.67 L839.33 481.33 L838.67 480.67 L838.67 475.00 L837.00 475.33 L835.33 472.67 L831.67 470.67 L830.67 466.00 L826.00 464.33 L824.67 462.33 L823.00 462.67 L821.33 462.00 L816.33 457.67 L811.33 457.00 L806.67 458.00 L803.00 457.00 L802.00 459.00 L800.00 460.67 L796.00 460.33 L789.67 458.00 L781.67 453.67 L773.00 451.00 L772.67 449.67 L767.00 448.33 L766.67 447.00 L760.00 447.00ZM824.00 447.00 L826.67 446.33 L830.00 443.67 L838.67 442.67 L842.00 445.00 L844.33 447.67 L844.33 456.00 L843.67 457.00 L836.67 457.00 L825.00 450.00ZM771.00 458.67 L769.67 461.33 L765.33 461.33 L761.67 460.00 L759.67 458.00 L759.67 458.67 L758.67 459.00 L754.33 457.00 L752.67 457.00 L747.00 454.33 L746.67 452.67 L739.00 450.67 L724.67 451.33 L720.67 453.33 L719.33 454.67 L719.67 455.67 L718.00 456.67 L717.67 457.67 L715.67 458.00 L702.00 453.67 L688.00 454.00 L687.67 457.33 L681.00 458.00 L681.00 460.67 L677.00 461.00 L676.67 463.67 L668.00 463.00 L665.33 461.67 L659.33 461.00 L656.33 459.67 L656.67 458.67 L655.67 457.00 L643.33 457.00 L643.00 456.00 L644.67 454.33 L653.67 452.67 L654.33 451.00 L657.67 450.33 L663.00 447.67 L667.00 446.67 L689.67 446.67 L690.00 446.00 L697.00 446.00 L702.67 444.67 L726.67 444.00 L727.67 443.67 L728.00 442.67 L746.00 442.33 L751.00 442.67 L758.00 444.33 L758.67 445.67 L757.00 449.67 L758.33 449.67 L759.67 450.67 L762.67 450.67 L763.00 452.00 L765.33 452.33 L770.67 457.00ZM799.00 440.67 L800.00 439.67 L801.67 439.33 L804.67 436.67 L815.67 436.67 L816.00 438.67 L823.33 437.33 L828.00 438.00 L828.00 442.33 L827.33 443.00 L825.00 443.33 L816.67 448.67 L808.33 448.33 L804.00 447.33 L799.67 444.67ZM630.00 443.00 L630.67 442.33 L638.33 441.67 L638.33 440.33 L642.33 437.00 L644.00 436.67 L660.00 438.67 L664.00 442.00 L664.00 444.67 L658.67 447.67 L651.33 449.33 L644.67 449.00 L638.00 446.00 L639.00 449.67 L636.00 450.67 L635.00 449.67 L632.00 449.33 L631.00 448.67ZM796.67 433.00 L793.67 443.00 L788.67 444.33 L784.00 444.00 L783.33 443.33 L782.67 440.67 L783.33 439.67 L782.67 436.00 L785.00 435.33 L785.67 434.00 L784.67 432.67 L785.33 432.00 L792.67 431.33 L794.67 431.67ZM746.33 431.00 L748.00 430.67 L751.00 428.33 L753.33 427.67 L769.33 429.00 L775.67 431.00 L777.67 433.67 L779.67 435.00 L779.67 436.67 L779.00 438.67 L775.67 441.00 L773.00 442.00 L768.00 442.33 L767.67 441.00 L760.00 440.00 L759.67 438.00 L753.33 438.67 L747.67 434.00 L746.33 432.00ZM744.00 428.00 L744.00 431.67 L742.67 432.00 L742.00 433.67 L739.33 436.00 L736.67 437.00 L735.67 436.67 L730.33 439.00 L726.00 439.00 L722.00 437.33 L715.67 437.00 L712.00 439.00 L704.67 441.33 L690.67 442.00 L689.67 440.67 L684.67 440.00 L682.33 441.33 L679.67 444.67 L677.33 444.00 L671.67 440.67 L665.67 439.67 L666.00 432.67 L675.00 432.67 L678.00 433.33 L684.33 437.00 L687.00 436.67 L689.00 434.00 L693.33 431.67 L700.67 429.67 L712.67 429.00 L714.67 429.67 L715.33 431.00 L720.00 432.67 L720.67 431.67 L724.67 431.67 L726.67 426.67 L730.33 425.33 L738.33 424.67 L739.00 426.00ZM641.67 419.67 L642.00 424.33 L640.33 424.67 L639.00 424.00 L638.00 425.67 L636.33 425.33 L636.00 424.00 L636.67 422.33 L639.00 420.33ZM778.67 416.00 L786.67 414.33 L797.33 414.33 L800.00 415.33 L800.00 417.67 L798.67 418.33 L779.00 419.00ZM701.67 413.00 L704.33 411.67 L723.33 412.67 L723.67 414.33 L722.67 416.00 L708.67 416.00 L702.00 415.00ZM686.00 410.33 L686.00 412.33 L684.00 414.00 L678.33 415.67 L677.00 415.33 L677.00 414.67 L680.00 412.00 L684.67 410.00ZM665.33 409.00 L665.67 412.00 L662.00 416.67 L660.00 416.00 L659.33 414.67 L659.33 412.33 L660.33 410.33 L662.67 409.00ZM644.67 399.67 L645.33 400.33 L645.67 402.67 L641.33 405.67 L637.67 410.00 L636.67 410.00 L632.33 417.33 L626.33 422.33 L624.33 422.33 L624.00 421.00 L627.33 416.00 L630.00 409.67 L633.00 408.67 L633.67 410.00 L633.67 404.00 L635.67 403.67 L636.33 402.33 L635.67 400.67 L638.00 399.67ZM792.67 400.33 L792.33 402.00 L777.67 402.67 L769.67 404.33 L767.67 404.33 L767.00 402.33 L767.33 399.67 L775.00 400.67 L778.00 399.33 L783.00 399.00 L784.00 397.67 L791.67 397.67ZM731.00 389.00 L730.67 392.67 L729.67 395.00 L728.00 395.00 L727.67 394.33 L727.33 395.00 L717.33 399.67 L711.67 404.00 L708.33 404.00 L706.33 404.67 L704.67 404.33 L704.67 401.00 L705.67 400.00 L708.00 400.67 L713.67 397.67 L715.00 394.67 L717.67 394.67 L718.00 393.00 L719.67 393.00 L723.33 390.67 L724.67 390.67 L724.00 390.33 L724.67 389.00ZM750.33 389.00 L750.00 390.00 L732.67 389.67 L732.67 389.00 L735.00 387.33 L742.33 386.33 L748.67 386.67ZM857.67 364.00 L857.00 378.33 L858.00 381.67 L856.67 382.00 L856.33 383.33 L855.00 384.33 L846.33 387.33 L847.67 387.33 L847.67 388.67 L844.67 390.00 L839.33 391.00 L795.00 391.00 L794.67 389.67 L787.67 388.33 L786.67 387.00 L785.00 386.33 L777.33 387.00 L770.33 385.67 L760.00 384.67 L759.67 383.67 L746.67 381.33 L745.67 380.67 L745.67 379.00 L739.00 378.33 L738.67 379.00 L730.67 379.00 L723.00 378.00 L722.67 379.00 L703.67 379.33 L675.00 382.00 L674.67 380.00 L664.00 382.67 L663.67 383.67 L648.33 384.33 L637.00 387.00 L620.00 388.00 L608.00 388.00 L607.67 386.00 L606.67 385.33 L600.00 385.00 L599.67 383.00 L597.67 383.00 L597.00 382.33 L596.33 379.00 L596.33 373.33 L597.33 367.33 L600.33 359.67 L601.33 358.33 L604.00 357.33 L606.67 352.00 L605.67 349.33 L608.00 346.67 L609.67 346.67 L611.67 343.33 L613.00 343.33 L615.33 345.33 L615.33 346.33 L610.67 353.00 L607.33 362.67 L607.00 365.67 L610.67 365.67 L614.33 357.00 L618.67 351.00 L621.67 345.33 L621.67 344.67 L618.33 344.00 L617.67 344.67 L616.33 344.33 L618.33 338.00 L624.33 332.67 L624.67 331.33 L627.67 330.00 L629.67 327.00 L640.33 320.00 L642.00 320.33 L654.00 313.33 L658.33 313.00 L673.00 308.33 L689.00 305.67 L706.67 305.00 L709.67 304.33 L709.67 306.00 L702.67 308.00 L702.00 312.67 L704.00 313.00 L703.67 315.67 L694.67 314.00 L692.67 313.00 L688.00 313.00 L688.00 316.00 L708.67 323.67 L708.67 319.67 L706.00 317.33 L705.00 314.33 L706.00 314.00 L711.67 315.67 L715.67 315.00 L715.67 311.67 L712.00 308.00 L713.00 303.67 L747.67 303.33 L759.33 304.00 L763.00 305.33 L780.00 307.00 L781.00 308.00 L786.00 308.00 L790.67 310.33 L799.33 310.67 L800.00 312.00 L814.67 317.00 L818.33 318.67 L819.00 320.00 L824.00 321.67 L825.00 323.00 L827.00 323.33 L830.67 325.67 L831.00 326.67 L843.00 338.00 L846.67 343.00 L851.33 347.33 L855.00 355.67ZM847.67 245.67 L848.00 252.00 L847.00 255.67 L851.00 258.67 L854.00 264.67 L854.67 267.67 L856.00 267.67 L860.67 274.00 L866.00 279.33 L870.67 282.33 L877.33 285.67 L887.33 288.67 L888.33 290.00 L891.00 291.00 L891.00 652.67 L883.33 654.00 L875.00 656.67 L872.00 658.67 L872.00 659.67 L868.33 662.33 L866.33 662.00 L863.00 664.67 L862.67 666.33 L859.00 670.00 L855.33 675.00 L851.67 682.00 L850.67 681.33 L850.33 682.00 L849.00 682.00 L847.00 686.33 L846.67 698.00 L607.00 698.00 L605.33 687.67 L602.00 679.00 L597.67 672.00 L596.00 671.33 L593.67 668.67 L593.67 666.00 L595.00 665.67 L591.00 662.33 L584.00 660.33 L574.00 655.00 L570.00 653.67 L563.00 653.33 L563.67 290.00 L564.67 289.33 L570.00 289.33 L574.33 287.67 L576.33 285.67 L579.67 285.00 L585.67 281.67 L586.00 280.67 L589.67 277.67 L593.00 276.33 L592.67 275.00 L595.33 272.00 L597.00 271.67 L598.00 268.33 L600.00 266.33 L602.00 262.33 L603.33 258.00 L604.67 257.00 L605.67 253.33 L605.67 248.67 L606.67 245.67 L641.33 246.67 L640.33 245.33 L641.33 244.00 L650.33 243.67 L650.33 245.00 L655.00 245.00 L656.33 255.00 L659.33 262.33 L660.33 266.33 L660.67 272.67 L662.67 278.00 L666.00 281.00 L669.00 286.33 L673.33 291.00 L675.00 292.00 L675.00 293.00 L682.00 298.00 L681.67 301.00 L670.33 303.67 L665.67 304.00 L665.33 303.00 L662.67 303.67 L661.67 305.33 L656.67 307.33 L655.00 308.67 L637.67 315.33 L636.00 316.33 L636.67 316.67 L636.00 318.00 L626.33 324.00 L624.67 324.00 L623.33 325.00 L622.67 326.67 L615.67 333.00 L614.67 333.00 L614.33 332.33 L612.33 334.33 L613.00 335.33 L606.00 342.00 L605.00 341.33 L605.33 342.67 L602.33 346.00 L601.00 346.00 L595.33 354.33 L592.00 361.67 L590.67 367.67 L589.33 369.00 L588.33 371.33 L588.00 377.67 L589.00 381.67 L591.00 382.00 L591.00 386.67 L592.67 386.67 L595.00 390.00 L604.67 392.67 L608.67 396.33 L610.00 395.33 L611.00 396.67 L613.00 397.00 L611.67 401.00 L607.67 405.67 L606.00 410.33 L603.67 413.67 L603.00 416.00 L601.67 417.33 L599.33 425.00 L598.67 437.00 L599.33 442.00 L601.33 448.33 L607.67 456.00 L607.33 459.67 L605.67 461.00 L605.67 462.67 L604.67 464.67 L604.33 468.33 L606.00 476.67 L604.33 477.00 L606.33 478.67 L615.00 478.67 L616.00 481.67 L617.00 482.00 L617.00 485.00 L614.00 487.67 L611.67 491.67 L609.67 492.67 L607.67 497.67 L607.00 506.67 L608.00 513.33 L608.00 528.67 L608.67 529.00 L609.00 533.00 L600.00 537.00 L598.67 539.33 L594.00 540.00 L593.33 543.67 L588.33 548.33 L584.33 554.33 L581.67 555.33 L579.33 560.33 L580.33 566.67 L580.67 575.33 L582.33 579.33 L583.00 583.33 L584.00 585.00 L584.00 591.67 L587.67 592.33 L593.33 600.33 L595.00 600.67 L596.00 603.00 L598.67 604.00 L598.33 606.67 L596.67 607.00 L591.33 617.00 L588.67 624.33 L589.00 646.67 L590.33 650.00 L595.33 657.33 L599.00 661.67 L603.00 663.67 L606.67 664.67 L611.67 664.67 L619.67 665.67 L621.00 666.33 L626.67 666.67 L627.33 668.00 L628.67 668.00 L632.00 670.67 L641.33 669.67 L690.33 673.00 L775.67 673.67 L776.00 672.67 L783.33 672.67 L783.67 673.33 L790.33 673.00 L799.67 671.67 L843.67 668.33 L850.33 667.00 L850.67 666.00 L854.00 665.33 L856.33 664.00 L859.00 660.67 L860.00 660.67 L860.33 658.33 L862.33 655.00 L862.33 654.00 L863.67 653.00 L865.00 646.00 L865.00 622.67 L863.33 612.67 L862.00 609.00 L861.33 609.00 L859.33 606.67 L858.67 603.67 L855.00 603.33 L854.00 602.00 L846.33 601.33 L848.67 596.33 L851.00 595.33 L852.67 593.33 L853.67 590.67 L853.67 569.67 L852.67 565.00 L850.33 565.00 L847.67 560.00 L847.67 555.00 L845.67 554.67 L845.00 543.33 L846.67 540.67 L848.00 534.33 L848.67 511.00 L851.67 510.67 L854.67 509.00 L855.00 504.00 L853.33 497.33 L848.67 489.67 L848.67 488.67 L846.33 486.00 L845.00 482.67 L847.67 478.67 L849.67 478.67 L850.33 473.00 L854.33 469.67 L856.33 470.33 L858.00 469.67 L856.67 469.00 L856.67 467.00 L858.67 466.67 L858.67 459.00 L858.00 458.67 L856.67 455.33 L849.33 447.67 L851.67 443.00 L851.67 440.00 L850.67 439.67 L849.67 436.67 L848.33 424.00 L846.67 418.33 L840.67 408.33 L839.67 403.67 L841.33 395.33 L842.67 394.67 L843.00 393.67 L851.67 394.67 L854.00 390.67 L858.00 388.33 L861.33 385.33 L864.67 383.67 L864.67 368.67 L863.67 362.00 L862.33 361.33 L861.67 353.00 L859.67 352.67 L860.33 347.00 L857.00 347.00 L849.00 336.00 L843.00 330.00 L827.00 318.33 L821.67 315.67 L818.67 315.33 L809.00 311.00 L808.67 310.00 L809.67 309.67 L799.67 306.00 L790.67 303.67 L785.67 303.33 L784.67 302.67 L784.33 300.67 L782.33 300.00 L777.67 300.00 L777.33 299.00 L778.67 297.67 L778.67 296.33 L787.00 286.00 L791.67 277.67 L793.00 272.33 L794.67 270.33 L795.00 266.67 L797.33 259.33 L798.67 258.67 L800.00 245.00 L801.00 242.00 L803.67 242.00 L809.67 244.33 L815.67 244.33 L817.00 246.67 L824.33 247.67 L837.33 247.33ZM699.00 182.00 L703.67 180.67 L707.67 178.00 L710.33 178.33 L714.00 176.33 L723.33 174.67 L733.67 174.67 L734.00 175.67 L740.33 176.33 L740.67 177.33 L740.00 178.67 L743.67 177.67 L744.00 179.67 L747.00 178.67 L748.00 180.33 L750.33 180.00 L753.33 181.33 L758.00 182.00 L768.67 189.67 L776.33 197.33 L784.33 209.00 L784.67 210.67 L786.67 212.33 L789.67 219.00 L789.33 223.00 L790.33 226.67 L792.67 229.00 L794.00 232.67 L797.00 236.00 L798.00 240.67 L795.00 241.00 L795.00 241.67 L793.67 242.00 L792.00 244.00 L790.67 259.67 L788.00 268.00 L788.00 269.67 L786.33 273.33 L784.67 274.00 L781.00 282.00 L775.00 289.33 L771.00 292.67 L770.67 294.00 L769.67 294.00 L765.00 298.00 L763.67 298.67 L754.67 298.00 L753.67 298.67 L736.00 298.00 L735.67 297.00 L708.00 296.67 L693.33 298.33 L688.67 296.67 L683.67 291.67 L680.67 290.00 L679.33 286.33 L677.00 283.33 L677.67 281.00 L675.67 280.67 L676.67 276.00 L673.33 276.00 L673.00 274.67 L673.67 274.00 L675.33 274.67 L687.67 274.67 L688.67 272.67 L690.67 272.67 L691.33 263.00 L692.00 260.67 L696.33 261.00 L696.00 265.00 L698.33 269.33 L699.00 272.67 L712.67 272.67 L712.67 211.00 L700.00 211.00 L699.67 233.00 L697.67 232.67 L696.00 222.33 L694.67 221.67 L693.33 217.33 L691.00 213.33 L690.67 211.00 L677.00 211.00 L676.33 266.00 L674.00 271.00 L670.33 271.00 L669.00 268.33 L666.67 261.00 L666.33 246.33 L665.00 243.33 L661.67 240.00 L662.33 234.00 L664.67 230.00 L664.67 226.00 L667.00 219.67 L669.33 218.67 L672.33 215.33 L671.00 210.67 L675.00 203.67 L678.67 198.67 L686.00 191.67 L687.00 191.67 L693.00 185.67 L694.67 185.67 L697.00 184.33Z"/>
</svg>
