<?xml version="1.0" encoding="UTF-8"?>
<svg xmlns="http://www.w3.org/2000/svg" viewBox="0 0 1254 1254" role="img" aria-label="NPC">
<path fill="#B8332A" fill-rule="evenodd" d="M765.33 841.00 L765.33 842.00ZM730.00 783.33 L728.33 788.00 L728.00 791.67 L731.33 790.33 L731.67 791.33 L731.00 792.67 L735.33 793.33 L738.00 795.67 L741.67 795.67 L742.00 797.67 L740.00 798.00 L739.00 799.67 L745.67 805.67 L748.67 797.00 L747.00 797.00 L747.00 798.67 L745.33 799.00 L745.00 797.33 L745.67 796.00 L743.67 794.00 L742.67 791.00 L738.00 791.00 L737.00 788.00 L739.00 787.67 L737.00 787.00 L737.00 788.33 L736.00 788.67ZM735.00 778.00 L735.67 779.33 L735.67 782.67 L734.00 785.67 L739.67 785.67 L738.67 780.00ZM870.67 608.67 L874.33 607.00 L871.67 606.67ZM1039.67 498.00 L1039.33 498.67ZM545.33 466.67 L544.00 467.33 L544.67 467.67ZM543.67 465.33 L543.00 466.67ZM324.33 465.67 L324.00 501.67 L322.00 502.00 L322.00 503.67 L324.00 504.00 L324.00 513.67 L325.00 514.00 L325.00 599.67 L324.00 600.00 L323.00 604.67 L323.33 655.67 L322.33 667.33 L322.00 688.67 L323.00 758.33 L324.00 777.67 L324.67 777.67 L325.00 778.67 L324.00 779.00 L323.33 794.33 L323.33 822.67 L324.00 831.00 L320.67 832.67 L322.33 834.33 L323.33 840.00 L323.00 869.67 L324.67 869.67 L325.00 870.67 L336.67 870.67 L337.00 873.67 L340.33 874.33 L341.00 875.00 L340.33 877.67 L342.67 878.33 L343.00 876.67 L345.00 877.00 L345.00 882.00 L342.00 883.00 L342.00 884.67 L345.00 885.33 L347.67 881.67 L346.67 879.67 L347.00 878.67 L348.00 878.67 L346.67 878.00 L347.33 875.00 L351.00 873.33 L353.67 872.67 L355.00 873.00 L355.00 874.67 L352.00 875.00 L352.00 876.67 L356.33 877.00 L357.00 879.67 L355.00 880.00 L355.00 881.67 L357.00 881.67 L357.67 883.00 L358.33 878.33 L360.33 876.67 L358.33 874.67 L358.67 873.67 L366.67 873.67 L367.67 871.67 L398.67 870.67 L399.00 855.00 L399.67 854.67 L400.67 848.33 L400.67 835.67 L400.00 835.33 L400.00 833.33 L400.67 832.00 L400.67 823.67 L401.67 822.67 L400.67 819.67 L401.67 817.00 L399.00 816.00 L399.67 703.00 L398.67 699.00 L398.67 688.00 L399.67 687.67 L401.00 694.33 L401.33 691.67 L403.00 690.00 L404.00 690.00 L406.33 692.33 L412.67 715.67 L411.33 719.67 L411.67 725.67 L412.67 727.00 L417.00 728.00 L418.00 734.00 L417.00 742.67 L419.00 744.00 L419.00 745.67 L421.33 747.00 L425.67 762.67 L427.00 763.00 L428.67 773.67 L430.00 774.00 L430.00 776.33 L427.00 784.67 L429.33 785.33 L430.33 786.33 L434.33 797.67 L434.00 804.67 L432.00 805.00 L432.00 806.67 L434.67 807.00 L439.33 811.33 L439.33 812.33 L438.00 813.00 L437.33 817.67 L435.67 818.00 L437.00 818.67 L437.00 820.33 L439.00 819.67 L440.00 820.00 L439.33 827.67 L442.67 828.33 L443.00 827.00 L444.00 826.67 L446.00 830.67 L446.33 834.00 L441.33 844.33 L443.67 843.67 L444.67 841.67 L446.67 841.67 L447.00 844.67 L449.00 845.33 L449.67 846.33 L450.00 850.67 L448.00 851.00 L448.00 852.67 L450.00 854.00 L450.33 859.00 L452.00 860.67 L453.33 860.67 L454.00 861.67 L452.33 873.33 L456.67 871.67 L457.00 870.67 L477.33 871.33 L477.33 873.33 L478.67 870.67 L482.67 871.33 L482.67 874.00 L480.00 874.00 L479.67 876.00 L477.00 875.33 L477.00 880.00 L473.33 881.00 L474.00 883.67 L476.67 883.67 L477.00 881.67 L479.67 881.67 L481.00 879.33 L485.67 878.67 L487.00 876.33 L490.67 875.67 L491.00 873.67 L493.00 873.67 L495.00 876.33 L496.67 873.67 L500.33 873.67 L500.00 872.00 L500.67 871.33 L523.67 870.67 L523.67 870.00 L524.67 869.67 L525.33 803.33 L526.33 800.00 L529.67 799.67 L530.33 798.33 L528.00 796.33 L526.67 793.00 L526.67 791.00 L530.00 785.33 L535.00 784.67 L536.67 787.00 L536.33 788.00 L538.67 788.33 L539.33 786.00 L542.67 782.67 L541.67 779.00 L540.00 779.00 L539.67 777.00 L536.33 775.33 L533.00 776.00 L532.33 772.67 L530.33 771.33 L527.67 771.67 L526.67 766.00 L528.33 765.67 L527.33 763.67 L526.67 752.00 L529.00 751.67 L527.67 751.00 L527.33 732.00 L528.33 725.00 L527.33 722.33 L526.67 714.00 L525.67 713.67 L525.33 712.00 L524.67 660.00 L523.67 659.00 L523.67 642.00 L524.67 641.67 L525.33 633.00 L527.67 632.67 L527.67 624.67 L529.33 623.67 L527.00 620.67 L527.33 619.67 L528.67 619.67 L528.67 618.00 L526.67 617.67 L527.33 610.00 L529.67 609.67 L529.67 607.00 L527.67 605.67 L528.00 604.67 L529.00 604.67 L527.67 604.00 L527.67 601.33 L529.00 601.00 L531.67 602.33 L532.00 604.67 L534.33 604.33 L539.33 605.33 L538.67 598.67 L541.33 596.67 L539.67 595.33 L535.67 599.33 L535.00 599.33 L533.00 596.00 L531.67 591.33 L526.00 592.00 L525.33 590.67 L524.67 582.00 L525.33 581.67 L524.67 520.00 L523.67 519.67 L523.67 518.00 L524.67 517.67 L526.33 511.33 L527.67 508.67 L530.67 506.67 L526.67 490.00 L525.67 489.67 L524.67 467.00 L492.00 467.00 L491.67 465.00 L478.00 465.00 L473.33 464.00 L471.33 465.33 L454.00 466.00 L454.00 615.67 L453.00 616.00 L453.00 637.00 L452.00 637.33 L449.00 631.00 L449.00 629.00 L451.67 624.00 L449.67 624.00 L446.33 622.00 L444.00 613.00 L444.67 609.67 L444.67 602.67 L445.67 599.33 L445.67 594.33 L442.00 595.67 L441.67 593.00 L442.67 592.67 L437.67 592.33 L437.67 590.67 L438.67 589.67 L437.67 582.00 L434.67 580.67 L435.33 570.67 L434.00 569.33 L433.00 570.67 L431.67 569.67 L432.33 562.00 L431.00 560.00 L431.00 558.33 L432.33 556.33 L435.33 555.67 L431.67 554.00 L431.67 552.67 L429.33 552.33 L428.67 551.67 L428.67 550.00 L426.33 550.00 L425.67 549.00 L421.67 535.67 L422.33 525.67 L420.67 521.00 L417.00 519.67 L414.67 511.67 L414.67 499.00 L413.00 499.00 L412.67 497.00 L413.33 495.00 L416.00 492.67 L411.00 490.33 L411.33 493.67 L410.00 493.67 L409.00 481.67 L407.67 475.33 L406.67 473.00 L406.00 473.00 L405.67 475.00 L403.00 474.67 L402.00 471.33 L402.33 468.33 L401.67 466.00 L372.33 464.00 L334.33 464.00 L335.33 465.00 L335.00 466.00ZM451.67 641.00 L452.67 640.67 L453.00 642.00 L452.00 642.33ZM842.00 456.00 L841.67 458.00 L837.00 457.00 L836.67 459.33 L825.00 460.33 L824.00 461.00 L824.67 461.67 L824.33 462.67 L816.67 462.33 L812.33 463.67 L796.00 472.67 L793.67 474.67 L788.33 474.33 L786.00 475.00 L785.00 477.00 L785.67 479.67 L784.67 480.67 L780.00 480.00 L780.00 484.67 L774.00 491.00 L770.67 496.00 L769.00 496.00 L768.33 498.33 L767.33 499.33 L764.00 500.00 L764.00 503.00 L762.00 509.67 L762.00 514.00 L760.33 519.00 L760.00 523.33 L758.33 526.67 L757.67 535.33 L756.00 540.67 L756.00 757.67 L754.00 758.00 L753.00 762.33 L755.00 763.00 L755.33 772.00 L755.00 774.00 L753.00 777.33 L752.67 783.33 L752.00 783.33 L748.67 780.00 L746.00 781.00 L747.00 784.33 L747.67 790.67 L746.00 791.00 L745.00 792.67 L747.00 794.33 L751.00 790.33 L752.00 790.67 L753.00 799.67 L755.00 799.67 L755.67 801.67 L756.67 815.00 L757.33 816.00 L759.00 816.33 L760.00 817.67 L762.00 823.67 L762.00 828.33 L764.00 836.67 L766.00 837.00 L765.67 840.33 L767.33 839.00 L770.00 839.33 L770.00 841.00 L772.33 843.33 L771.67 844.33 L772.67 844.67 L772.00 847.67 L774.00 848.67 L775.00 853.67 L781.00 856.33 L784.00 856.00 L785.67 857.67 L788.00 858.67 L790.67 861.33 L793.67 861.67 L794.00 863.33 L798.33 865.00 L799.00 866.00 L810.33 869.33 L811.00 871.00 L815.67 872.00 L817.00 875.67 L823.67 874.33 L830.67 875.67 L841.33 876.33 L861.00 875.67 L862.00 880.67 L865.67 881.33 L865.67 879.67 L867.67 878.67 L868.00 874.67 L873.67 873.67 L886.00 873.67 L887.67 871.00 L886.33 870.00 L886.67 869.00 L891.67 867.00 L893.00 867.00 L894.00 868.67 L898.33 868.00 L898.67 866.00 L902.33 865.00 L902.67 863.00 L904.67 862.00 L905.00 860.67 L909.33 858.33 L911.00 858.67 L917.67 854.67 L917.00 851.00 L921.67 845.00 L924.67 845.67 L924.67 843.00 L926.67 842.67 L927.67 838.00 L929.67 837.67 L928.67 833.67 L930.00 833.67 L933.67 831.67 L934.67 826.00 L933.33 824.00 L934.00 822.67 L934.67 816.67 L936.00 816.33 L937.00 813.67 L939.00 813.33 L940.67 807.67 L940.33 806.67 L938.67 806.00 L938.67 804.67 L940.00 803.00 L940.67 799.00 L942.67 798.67 L943.00 796.67 L945.67 796.67 L944.00 795.00 L942.00 795.67 L940.67 795.33 L940.67 732.00 L940.00 732.00 L939.67 731.00 L869.00 731.00 L868.67 735.67 L868.00 736.00 L867.33 773.67 L867.00 777.67 L865.67 782.67 L866.00 792.67 L867.33 796.67 L866.67 797.00 L865.67 800.33 L860.33 808.00 L857.00 808.67 L856.33 809.67 L855.00 810.00 L844.00 810.00 L843.67 807.00 L842.00 806.00 L841.67 808.00 L836.00 808.00 L831.67 803.33 L830.00 799.67 L830.00 796.33 L828.33 791.67 L827.67 786.00 L826.67 785.67 L827.00 546.33 L827.67 544.33 L829.33 543.00 L831.67 535.00 L836.00 530.67 L840.67 532.67 L844.33 532.67 L842.67 531.67 L843.00 528.67 L848.67 529.00 L855.00 528.67 L855.33 528.00 L856.33 528.00 L861.00 530.33 L865.67 535.67 L865.67 539.67 L864.33 544.33 L864.00 548.67 L866.33 552.33 L867.67 574.33 L868.67 579.67 L867.67 580.67 L867.00 584.33 L867.00 599.67 L865.00 600.00 L865.00 601.67 L863.33 602.00 L867.67 603.67 L869.00 606.67 L869.67 606.33 L868.67 605.67 L868.67 604.00 L870.00 603.00 L874.00 603.00 L875.67 603.67 L939.67 602.67 L940.00 601.67 L941.67 601.67 L941.67 560.00 L943.67 559.67 L942.33 556.33 L940.67 545.00 L939.67 544.67 L939.67 532.00 L941.67 531.67 L940.67 529.00 L938.00 528.67 L937.67 523.67 L933.00 510.00 L929.67 503.67 L929.67 502.33 L931.33 500.33 L930.67 497.00 L926.67 498.00 L924.00 494.00 L920.67 490.67 L920.67 489.33 L922.67 485.00 L918.00 485.00 L917.67 482.00 L915.00 481.00 L912.33 481.67 L910.00 479.33 L908.33 479.00 L903.00 475.67 L902.67 474.00 L897.00 472.00 L896.67 470.67 L888.00 467.00 L876.67 464.67 L876.67 463.00 L860.33 462.00 L860.00 460.33 L859.00 460.00 L859.33 457.33 L857.00 458.00 L856.67 460.00 L848.67 459.67 L844.00 459.00 L843.67 456.00ZM661.00 455.67 L654.00 455.00 L655.67 460.00 L659.33 463.33 L659.33 464.00 L658.00 465.00 L551.00 466.00 L550.67 467.00 L548.67 467.00 L549.33 469.33 L550.00 503.67 L548.00 504.00 L549.33 509.33 L549.00 597.67 L546.00 598.00 L546.00 599.67 L547.67 599.67 L548.00 601.00 L547.33 605.00 L545.67 609.00 L544.67 610.00 L543.00 610.00 L542.00 612.33 L540.00 614.33 L536.00 616.00 L536.67 619.67 L535.33 620.00 L537.00 621.00 L537.00 622.33 L538.00 620.67 L543.67 620.67 L545.67 618.67 L549.00 619.00 L549.00 633.67 L548.00 634.00 L547.00 632.67 L547.67 637.67 L544.67 638.00 L543.00 639.67 L545.00 641.00 L545.00 642.67 L547.67 642.00 L548.00 643.67 L550.00 644.00 L549.00 847.67 L548.00 848.00 L548.00 864.67 L547.00 865.00 L542.00 864.00 L540.67 862.00 L539.00 863.00 L540.00 867.67 L543.33 867.67 L544.00 869.00 L546.33 869.33 L547.00 870.00 L547.00 871.67 L548.67 871.67 L549.00 872.67 L549.67 872.00 L551.67 872.67 L549.00 877.67 L554.67 877.67 L555.33 875.33 L556.33 874.33 L564.67 871.33 L600.67 870.67 L601.00 869.67 L601.67 869.67 L602.00 870.67 L625.67 871.33 L630.33 872.67 L634.67 875.67 L633.67 869.00 L629.00 867.67 L629.00 866.00 L631.67 857.00 L626.67 855.67 L625.67 849.33 L626.00 848.33 L627.67 849.33 L630.33 843.67 L628.67 832.00 L625.67 831.00 L625.67 817.00 L624.67 816.67 L624.67 815.00 L625.67 814.67 L625.67 760.00 L629.67 757.67 L629.67 751.00 L628.00 750.00 L628.00 748.33 L628.67 747.00 L630.67 748.33 L630.67 745.33 L631.67 741.67 L633.33 740.33 L635.67 739.67 L636.00 742.33 L639.67 740.67 L639.67 739.00 L637.00 738.67 L637.67 736.00 L636.00 733.33 L630.67 736.67 L629.67 734.00 L626.67 731.67 L625.67 717.00 L657.67 716.67 L658.00 715.67 L670.67 714.67 L672.00 716.67 L679.67 715.67 L680.00 718.67 L682.33 719.33 L681.67 712.33 L683.67 711.67 L684.67 710.00 L692.33 706.67 L694.67 707.33 L698.67 707.33 L701.00 706.67 L703.00 705.33 L703.67 703.00 L705.00 702.33 L704.67 701.33 L707.00 700.67 L709.00 698.33 L710.67 698.33 L711.67 697.33 L712.67 697.33 L714.67 698.67 L716.33 695.00 L716.33 692.67 L720.33 687.67 L724.00 687.00 L725.00 686.00 L725.33 680.33 L729.33 669.00 L730.33 668.67 L731.67 671.33 L733.00 669.67 L734.67 669.67 L735.00 665.67 L737.33 660.00 L737.33 658.00 L736.33 656.00 L737.00 652.67 L736.67 649.00 L739.00 648.33 L739.67 645.67 L739.67 641.00 L739.00 640.67 L739.00 639.33 L738.67 640.00 L737.67 639.67 L737.00 544.00 L735.67 542.67 L734.33 522.33 L732.00 516.33 L730.67 515.67 L730.00 512.00 L729.00 511.67 L727.00 506.33 L726.67 503.67 L725.33 503.00 L722.00 497.33 L721.67 495.00 L722.67 490.00 L721.33 490.00 L712.67 486.33 L712.33 485.33 L713.67 484.67 L713.67 483.00 L709.00 481.00 L705.00 480.33 L704.00 479.00 L702.00 479.33 L694.00 475.00 L690.33 473.67 L689.67 472.67 L678.00 469.67 L669.00 469.00 L668.67 467.00 L672.00 466.00 L664.00 464.00 L663.00 461.33 L660.67 459.67 L660.67 458.00 L662.67 457.67ZM735.67 656.67 L736.00 657.67 L735.00 659.00 L734.33 659.00 L734.00 657.67ZM625.00 531.67 L649.67 532.33 L654.67 533.67 L655.00 536.00 L658.67 538.67 L659.33 545.33 L658.00 548.67 L655.00 549.00 L653.00 551.67 L654.33 552.33 L656.33 555.00 L658.67 555.67 L659.00 552.67 L661.67 552.67 L662.00 550.67 L663.00 549.67 L666.00 550.00 L666.00 636.67 L664.67 637.00 L664.00 640.00 L660.00 640.00 L659.67 646.00 L656.00 646.00 L655.67 649.00 L652.00 649.00 L651.33 650.67 L653.67 651.67 L652.67 653.00 L642.67 652.67 L634.67 651.67 L629.67 650.33 L629.67 649.00 L627.67 647.67 L627.67 639.00 L626.67 638.67 L625.67 559.00 L624.67 558.67ZM1008.67 442.33 L1008.33 442.67 L1009.33 443.33ZM626.33 292.33 L626.00 292.67ZM441.00 249.00 L440.00 252.67 L438.00 253.00 L438.67 254.33 L438.33 256.00 L437.00 256.67 L434.00 256.33 L432.67 259.33 L425.00 261.00 L425.00 264.00 L423.00 265.00 L423.00 267.67 L424.00 268.67 L424.00 269.67 L422.00 271.67 L422.67 273.67 L417.67 274.00 L417.00 272.67 L417.00 274.67 L416.33 275.33 L411.00 276.00 L411.00 280.00 L408.00 282.00 L408.67 285.00 L408.00 285.67 L405.00 285.00 L404.33 288.33 L403.33 289.33 L401.00 290.00 L401.67 292.00 L391.33 302.33 L390.67 302.33 L389.00 300.33 L389.00 303.67 L386.00 304.00 L386.00 308.00 L383.67 310.00 L379.67 310.67 L376.33 313.00 L377.00 317.00 L376.00 318.00 L372.00 318.00 L370.33 319.33 L368.33 325.33 L367.67 326.00 L366.00 326.00 L365.67 328.00 L364.00 328.00 L364.67 329.33 L364.33 330.67 L363.33 331.33 L359.00 331.00 L358.00 333.00 L355.33 333.00 L355.00 335.33 L351.33 338.67 L353.00 340.67 L353.00 341.67 L336.67 358.00 L332.00 358.00 L331.33 362.33 L330.67 363.00 L329.00 363.00 L328.00 367.67 L327.33 368.33 L325.00 368.00 L324.67 370.00 L322.33 370.33 L321.67 371.67 L319.00 373.00 L318.67 375.00 L317.00 375.00 L316.67 377.00 L314.00 377.67 L315.67 380.00 L298.33 396.67 L297.00 398.67 L297.00 399.67 L295.67 401.00 L294.00 401.00 L280.33 415.00 L279.00 415.33 L277.00 417.00 L271.00 425.00 L271.00 426.67 L269.00 427.00 L268.67 429.00 L266.67 429.00 L262.67 434.00 L259.33 436.33 L256.67 440.67 L255.33 442.00 L253.67 442.00 L253.00 442.67 L253.00 444.33 L246.33 450.67 L243.00 450.00 L242.67 453.00 L239.00 453.00 L239.00 457.67 L237.67 458.33 L236.00 457.00 L233.67 459.00 L233.00 460.33 L233.00 463.67 L231.67 464.00 L229.33 468.00 L226.00 469.67 L226.00 470.67 L223.33 473.00 L222.00 477.33 L220.67 502.00 L220.67 515.67 L222.00 528.67 L220.67 529.00 L222.00 529.67 L221.33 537.67 L219.00 538.00 L219.00 543.67 L217.00 544.00 L216.67 542.00 L214.67 541.67 L214.67 540.00 L213.00 540.00 L212.67 538.33 L209.67 539.00 L208.67 535.00 L207.00 535.00 L206.33 538.67 L204.00 539.00 L204.00 543.67 L209.67 543.67 L210.00 542.33 L211.33 541.00 L214.33 541.00 L216.00 548.33 L214.00 548.33 L213.33 551.33 L214.00 555.67 L218.00 555.67 L217.67 553.00 L219.67 552.67 L220.00 555.67 L222.00 556.00 L222.00 569.67 L223.00 570.00 L223.00 571.67 L222.00 572.00 L222.00 576.33 L221.00 576.67 L220.67 578.00 L220.00 578.00 L221.00 582.33 L221.00 598.67 L222.00 604.67 L220.00 605.00 L221.00 615.67 L219.33 616.00 L221.00 617.00 L222.00 654.67 L220.00 655.33 L221.33 659.33 L222.00 671.67 L223.00 672.00 L223.00 844.00 L226.00 845.00 L226.00 847.00 L227.67 848.00 L227.00 851.00 L230.33 852.67 L232.67 855.00 L233.67 857.00 L238.67 858.67 L239.00 860.00 L254.33 874.67 L255.00 876.00 L255.00 878.67 L258.33 880.33 L259.33 883.00 L263.33 884.33 L271.33 891.00 L272.67 897.00 L275.67 900.33 L277.00 899.00 L278.00 899.00 L280.00 905.67 L282.00 906.00 L281.33 909.67 L285.67 910.67 L287.67 909.33 L288.33 910.00 L289.00 915.67 L296.33 917.00 L299.33 920.00 L299.67 923.67 L298.33 924.00 L298.67 924.67 L304.67 928.67 L305.67 927.67 L307.00 928.00 L308.00 931.67 L310.00 932.00 L310.00 936.33 L307.33 936.33 L306.00 937.00 L306.00 938.67 L308.67 938.67 L309.67 936.67 L315.33 937.33 L341.00 963.67 L350.67 972.67 L364.67 987.67 L375.67 998.00 L378.00 1001.33 L393.67 1017.00 L399.00 1020.00 L399.00 1022.00 L403.33 1027.00 L405.67 1027.67 L407.33 1030.33 L411.33 1033.33 L413.00 1035.67 L413.00 1039.00 L415.67 1042.33 L417.00 1042.67 L419.00 1044.67 L420.67 1048.33 L422.67 1048.67 L423.33 1046.67 L424.67 1046.33 L425.00 1047.67 L426.00 1048.00 L426.00 1049.00 L430.67 1053.00 L433.33 1057.33 L434.67 1057.67 L439.33 1062.33 L441.67 1066.00 L445.00 1068.67 L447.33 1068.67 L447.67 1070.00 L462.00 1070.67 L494.33 1070.33 L496.67 1072.33 L498.33 1070.67 L550.33 1070.67 L551.00 1070.00 L552.67 1070.00 L554.67 1070.67 L588.67 1071.00 L589.00 1069.00 L595.33 1069.67 L595.67 1071.00 L603.67 1071.00 L604.00 1069.00 L611.67 1069.67 L612.00 1071.00 L786.67 1072.00 L799.00 1071.33 L808.67 1068.67 L809.33 1067.67 L811.67 1068.33 L816.67 1065.67 L816.00 1063.67 L823.67 1056.00 L824.33 1053.33 L834.67 1043.00 L834.33 1041.67 L835.67 1040.33 L837.67 1040.00 L840.00 1036.33 L841.00 1036.33 L842.67 1037.67 L843.33 1036.33 L847.67 1032.67 L847.33 1030.00 L848.00 1029.00 L853.33 1027.00 L854.67 1025.67 L856.00 1023.33 L856.67 1019.00 L857.33 1018.33 L858.33 1018.67 L861.00 1018.00 L864.00 1015.33 L869.67 1012.67 L869.33 1007.67 L873.33 1003.33 L875.33 1002.67 L876.00 1001.67 L877.67 1001.67 L877.67 1000.00 L879.67 999.67 L880.33 997.33 L881.33 996.33 L885.33 995.67 L889.67 997.33 L889.67 993.00 L888.33 993.67 L887.00 993.33 L888.00 990.67 L890.67 990.67 L889.33 986.00 L890.67 985.33 L894.33 987.67 L896.00 985.33 L897.00 985.00 L899.00 987.00 L900.33 984.00 L897.67 983.00 L898.33 981.33 L897.67 978.00 L899.00 977.33 L900.67 978.67 L903.67 975.67 L907.33 973.67 L905.67 973.33 L905.67 969.00 L906.67 968.00 L907.67 968.00 L911.00 964.67 L913.00 964.67 L915.00 966.33 L916.33 964.00 L918.67 962.67 L919.33 959.33 L920.33 958.33 L922.67 957.67 L921.33 954.67 L922.33 953.67 L924.00 954.67 L926.67 953.67 L926.00 951.00 L928.00 950.33 L930.00 944.67 L933.00 943.00 L935.67 943.67 L937.33 938.33 L938.00 937.67 L940.33 937.33 L944.33 934.00 L943.33 932.00 L947.00 931.67 L950.00 928.00 L952.33 926.67 L955.00 924.00 L956.67 919.67 L958.67 917.33 L958.67 915.00 L959.33 914.33 L960.67 914.67 L962.33 913.33 L964.00 914.00 L966.00 913.33 L968.00 910.67 L968.33 906.67 L969.67 905.33 L975.67 903.67 L976.67 901.67 L980.67 901.67 L980.67 899.00 L982.67 898.67 L983.67 895.67 L985.33 894.67 L983.33 891.33 L985.67 888.33 L988.00 887.00 L990.67 887.67 L991.00 885.67 L994.67 885.00 L992.67 883.67 L992.00 881.67 L995.00 878.67 L995.67 878.67 L996.00 877.67 L997.33 877.33 L999.00 875.67 L1000.67 872.00 L1003.67 871.00 L1007.67 867.33 L1009.67 867.67 L1011.67 865.67 L1015.67 864.67 L1017.00 862.67 L1019.67 862.67 L1019.00 858.33 L1020.00 857.33 L1021.00 857.67 L1021.00 860.67 L1022.67 861.67 L1022.67 854.33 L1024.33 854.00 L1026.00 854.67 L1029.00 851.00 L1030.67 846.00 L1033.67 845.67 L1034.67 844.00 L1031.67 842.67 L1031.67 778.00 L1030.67 777.67 L1031.00 769.00 L1031.67 768.67 L1032.67 736.67 L1032.00 710.67 L1030.67 709.67 L1030.67 700.67 L1031.67 696.00 L1032.33 569.00 L1031.67 568.67 L1031.67 553.00 L1032.33 552.33 L1032.33 531.33 L1031.67 530.00 L1031.67 512.67 L1032.67 512.33 L1032.67 511.00 L1031.00 510.00 L1031.00 508.00 L1032.67 501.00 L1034.67 500.67 L1035.33 497.33 L1036.00 496.67 L1037.67 496.67 L1039.33 489.67 L1040.00 489.00 L1045.00 489.67 L1047.67 487.00 L1047.00 484.33 L1043.00 483.00 L1041.67 481.00 L1034.00 482.00 L1033.67 477.00 L1031.33 475.33 L1030.67 472.67 L1028.33 471.67 L1027.67 467.00 L1026.67 466.67 L1026.67 461.67 L1028.00 461.00 L1026.67 460.33 L1024.67 462.33 L1020.67 462.33 L1015.33 457.00 L1014.33 457.33 L1014.00 456.00 L1012.00 455.00 L1007.00 449.00 L1007.33 446.33 L1000.67 437.00 L998.00 437.00 L997.00 438.00 L996.00 438.00 L990.67 432.67 L991.33 430.67 L987.67 428.67 L987.67 426.00 L983.67 425.67 L984.33 424.67 L982.33 421.67 L983.33 417.00 L980.00 416.33 L977.33 417.67 L975.67 417.67 L973.67 415.67 L973.67 414.67 L975.33 413.00 L969.67 410.67 L970.67 407.00 L966.00 405.00 L964.67 406.33 L963.67 406.00 L964.33 403.67 L964.33 401.00 L963.67 399.33 L961.67 400.67 L960.67 400.67 L958.67 398.67 L958.67 396.00 L954.67 395.33 L952.67 393.00 L951.67 393.33 L946.33 388.33 L945.67 386.67 L927.67 368.67 L927.67 367.67 L930.33 365.00 L923.00 362.00 L920.67 359.33 L919.67 356.00 L916.67 356.00 L916.00 353.33 L909.67 346.33 L907.33 348.00 L901.00 341.67 L895.67 337.33 L894.00 335.00 L894.67 332.67 L891.67 328.00 L888.33 328.00 L889.67 324.00 L884.00 322.00 L884.67 323.67 L883.67 324.00 L880.67 322.33 L877.67 319.33 L877.67 318.67 L875.67 317.67 L875.67 311.00 L870.67 307.67 L869.33 307.33 L868.33 308.00 L853.33 293.00 L852.00 293.00 L847.33 287.00 L847.67 285.67 L844.00 278.33 L838.00 278.00 L836.67 273.00 L831.00 272.00 L827.33 268.33 L827.33 267.33 L830.67 264.67 L830.67 263.00 L827.00 264.00 L826.67 261.00 L824.33 259.67 L818.00 258.00 L813.67 254.33 L813.33 253.00 L810.00 250.00 L809.33 248.67 L806.33 248.00 L631.00 248.00 L630.67 249.00 L578.00 249.00 L577.67 248.00 L450.33 248.00 L447.00 248.33 L444.33 250.00ZM272.00 844.67 L274.33 844.67 L274.67 846.00 L273.33 846.67ZM259.00 811.67 L260.00 812.00 L259.67 818.33 L259.00 818.33 L258.33 817.00ZM995.00 784.67 L996.00 785.00 L995.67 792.33 L994.67 792.00ZM256.00 775.67 L257.67 776.00 L257.33 792.00 L255.67 791.67 L255.00 788.67 L255.00 784.33 L255.67 781.67 L255.33 778.00ZM995.00 766.67 L996.00 767.00 L995.67 784.00 L994.67 783.67ZM258.33 732.67 L258.67 739.67 L258.00 748.33 L257.67 766.67 L256.33 767.00 L256.33 734.00 L257.00 732.67ZM256.67 718.00 L257.67 717.67 L258.00 718.67 L257.00 719.00ZM257.33 699.33 L258.33 699.67 L258.33 715.67 L256.67 715.00ZM994.67 681.67 L995.67 681.33 L996.67 682.67 L995.00 683.33ZM997.33 572.67 L997.67 574.67 L996.33 576.00 L995.00 576.33 L994.67 573.00ZM995.00 559.00 L996.00 559.33 L997.67 562.67 L997.33 564.33 L996.67 564.33 L996.00 563.00 L995.67 571.00 L994.67 570.67ZM995.00 525.33 L999.00 526.00 L998.33 543.33 L996.67 547.00 L994.67 545.67ZM958.67 401.00 L960.00 400.67 L960.33 401.67 L959.00 402.00ZM884.67 325.33 L885.67 325.00 L886.33 326.67 L885.00 327.00ZM458.33 286.00 L544.00 285.67 L547.67 287.67 L553.33 286.67 L560.67 287.67 L569.67 286.67 L570.00 285.67 L578.67 285.67 L579.00 285.00 L580.67 284.67 L581.00 285.67 L598.00 285.67 L600.00 287.67 L610.67 286.67 L612.33 290.00 L614.33 288.33 L624.67 288.67 L625.00 287.67 L629.67 287.67 L630.00 289.00 L629.33 292.00 L631.67 291.67 L631.67 289.00 L632.33 288.33 L639.00 287.33 L645.00 287.33 L648.33 288.67 L649.67 290.33 L651.00 286.67 L653.00 287.33 L665.67 286.67 L666.00 285.67 L667.67 285.00 L671.00 286.00 L670.00 287.67 L683.00 287.33 L687.33 288.67 L689.67 290.33 L691.00 288.33 L692.67 288.00 L696.00 286.00 L699.00 285.67 L732.67 286.00 L733.00 286.67 L744.67 286.67 L745.00 288.67 L746.67 288.33 L747.00 287.67 L768.67 286.67 L769.00 286.00 L770.67 286.00 L771.00 286.67 L792.67 286.67 L793.00 288.67 L794.67 288.67 L795.00 287.33 L797.33 288.67 L799.00 288.33 L802.67 292.00 L802.67 292.67 L801.33 293.00 L798.00 290.00 L797.00 291.67 L797.67 294.33 L806.00 298.00 L805.67 300.00 L803.00 300.00 L801.33 301.67 L802.33 302.33 L804.00 302.33 L808.67 301.00 L812.00 304.00 L812.00 307.67 L814.67 309.67 L817.00 309.00 L819.67 311.67 L822.00 313.00 L822.00 314.67 L823.00 315.00 L822.00 318.00 L823.67 320.67 L827.00 323.67 L831.00 325.67 L835.00 331.00 L836.67 332.33 L837.67 332.00 L839.33 336.00 L841.00 337.67 L843.00 338.00 L843.00 339.67 L847.00 340.33 L847.67 341.00 L847.00 343.00 L851.00 347.67 L853.67 347.33 L854.00 350.67 L863.00 359.67 L867.00 362.67 L869.00 362.00 L870.00 363.00 L870.67 366.00 L873.67 369.67 L877.67 378.00 L880.67 379.33 L880.67 376.67 L881.67 376.33 L882.00 379.67 L883.67 380.33 L885.00 382.67 L887.33 382.67 L887.67 382.00 L889.33 382.33 L896.33 389.33 L897.67 391.67 L899.33 392.67 L902.67 396.67 L903.67 396.67 L907.00 400.00 L909.00 403.00 L910.67 403.67 L913.33 407.33 L915.67 409.67 L916.67 409.67 L925.67 418.67 L926.33 423.33 L928.33 424.33 L929.00 425.67 L934.67 427.67 L937.33 431.33 L939.00 432.00 L939.00 432.67 L938.00 433.00 L938.00 436.67 L943.00 437.33 L944.00 438.00 L944.00 441.00 L945.67 444.00 L945.67 445.67 L945.00 446.67 L948.00 447.67 L951.67 446.00 L956.67 450.67 L956.33 451.67 L954.00 451.67 L956.67 452.33 L957.00 454.67 L959.00 455.00 L959.00 459.67 L963.67 460.33 L964.00 462.33 L966.00 461.00 L970.67 465.67 L969.33 467.67 L972.00 469.00 L972.00 470.67 L974.00 471.00 L974.00 474.67 L978.67 476.67 L982.00 480.67 L984.00 481.00 L984.00 482.67 L987.00 482.00 L989.00 483.00 L994.00 488.00 L993.67 490.67 L994.33 491.00 L994.67 493.67 L994.00 536.00 L994.00 762.67 L993.00 763.00 L992.33 786.33 L991.00 792.67 L992.33 795.67 L993.00 816.67 L994.00 817.00 L993.67 829.00 L991.00 833.33 L984.33 839.00 L982.67 839.00 L981.00 840.67 L980.67 842.00 L979.67 842.00 L977.00 840.00 L975.00 842.33 L970.33 843.00 L973.00 845.00 L974.33 847.00 L973.33 848.33 L970.33 849.00 L968.00 849.00 L966.67 848.33 L965.67 848.67 L963.33 853.33 L967.00 851.67 L967.67 853.67 L966.00 854.00 L966.00 856.67 L963.67 858.00 L956.33 867.33 L954.67 868.00 L954.00 869.67 L952.67 870.00 L948.00 874.67 L941.67 882.33 L935.67 888.00 L934.67 888.00 L918.00 904.33 L915.00 908.67 L911.67 912.00 L910.67 912.00 L908.00 914.67 L908.00 915.67 L906.67 917.00 L905.67 917.00 L903.00 919.33 L900.67 923.00 L899.33 922.00 L897.33 922.67 L897.00 921.67 L895.00 922.00 L896.00 926.67 L893.33 927.00 L893.67 930.00 L892.00 931.33 L887.67 931.33 L885.67 932.67 L885.00 934.67 L887.33 935.33 L888.00 936.67 L886.67 938.00 L885.67 938.00 L874.00 949.67 L873.67 951.00 L872.33 951.00 L861.67 961.67 L859.67 960.33 L858.33 963.33 L852.00 969.00 L852.00 972.00 L847.67 977.00 L846.67 977.00 L845.67 978.00 L844.00 978.00 L841.00 983.00 L836.00 984.00 L835.33 986.33 L833.33 987.67 L834.67 990.00 L834.33 991.33 L828.00 990.00 L827.33 993.00 L827.67 997.00 L826.00 998.67 L821.67 998.67 L819.33 1001.67 L819.67 1005.00 L798.00 1026.67 L797.00 1026.33 L796.67 1025.00 L795.00 1025.00 L795.00 1026.67 L793.00 1027.00 L791.67 1030.00 L788.33 1029.33 L781.67 1029.33 L763.00 1031.00 L762.67 1032.00 L707.67 1032.00 L705.67 1030.67 L705.67 1029.33 L704.67 1031.00 L700.67 1030.33 L700.33 1029.33 L702.33 1027.67 L695.00 1029.00 L694.00 1030.00 L688.00 1029.67 L687.67 1028.00 L682.67 1030.33 L665.33 1030.33 L656.67 1029.33 L648.67 1029.67 L647.67 1027.00 L644.67 1028.67 L637.00 1030.67 L611.00 1031.00 L610.67 1032.00 L609.67 1032.00 L609.33 1031.00 L605.33 1030.33 L598.67 1030.33 L596.00 1031.00 L595.67 1028.00 L592.00 1029.33 L583.67 1029.33 L578.00 1026.00 L577.00 1027.00 L577.67 1028.33 L577.33 1029.67 L573.33 1029.00 L569.33 1029.33 L566.33 1030.67 L565.00 1032.00 L500.00 1032.00 L499.67 1031.00 L494.67 1030.00 L462.00 1030.00 L460.67 1027.00 L456.67 1026.67 L456.67 1024.00 L453.00 1024.00 L449.33 1020.67 L450.33 1018.33 L447.00 1015.33 L446.67 1014.00 L445.00 1014.00 L444.33 1013.33 L443.67 1009.00 L440.33 1008.33 L437.67 1004.00 L434.00 1004.00 L433.67 1002.00 L430.00 1001.00 L425.33 996.33 L424.33 996.33 L421.67 993.67 L421.67 992.00 L416.33 988.00 L413.33 984.67 L415.67 980.00 L412.33 981.00 L410.00 980.00 L407.67 977.00 L408.33 975.33 L405.67 971.00 L402.33 969.00 L400.00 969.67 L396.00 965.67 L397.33 963.33 L396.67 963.00 L397.00 960.67 L394.67 953.67 L393.00 957.00 L390.00 957.00 L389.67 955.33 L387.67 956.33 L386.00 956.00 L385.67 954.67 L386.33 953.67 L383.67 951.00 L382.67 948.00 L380.33 947.00 L378.33 947.67 L377.33 946.67 L377.33 944.33 L376.00 942.67 L372.67 935.00 L368.00 934.00 L368.00 936.00 L367.00 936.33 L364.33 934.33 L363.33 932.00 L357.67 927.67 L358.00 926.67 L359.67 926.67 L358.00 923.33 L353.00 923.00 L351.00 920.00 L351.67 917.00 L348.67 915.67 L348.67 913.67 L350.00 913.00 L344.00 911.00 L343.67 911.67 L342.33 911.33 L344.33 908.00 L342.67 907.00 L342.67 905.00 L337.00 906.00 L320.33 890.33 L320.67 889.33 L320.00 888.67 L320.00 887.33 L320.67 886.00 L319.00 885.67 L319.67 883.67 L318.67 882.33 L318.67 881.00 L313.33 882.33 L313.00 880.33 L313.67 879.00 L312.00 879.00 L311.67 877.00 L309.67 876.67 L309.67 875.00 L304.67 873.67 L302.67 864.00 L299.33 865.00 L296.00 864.00 L281.33 849.00 L280.67 843.00 L276.67 842.00 L274.67 838.00 L273.00 838.00 L271.67 839.00 L270.67 834.00 L265.33 834.00 L264.33 833.33 L264.67 830.33 L263.33 824.00 L265.67 823.67 L265.67 822.00 L266.67 821.67 L264.67 821.00 L265.33 818.00 L268.33 816.00 L266.00 815.33 L265.67 813.33 L262.67 814.00 L261.33 813.33 L260.67 801.00 L259.67 800.67 L259.67 800.00 L260.67 799.67 L261.67 760.00 L262.67 759.67 L263.33 755.67 L263.67 740.67 L264.67 740.33 L265.33 741.00 L266.00 747.67 L268.67 748.67 L269.33 746.33 L270.00 745.67 L271.67 745.67 L272.33 743.67 L267.67 740.00 L268.67 737.67 L270.67 737.67 L270.67 735.00 L264.33 737.67 L262.67 737.33 L263.00 735.67 L265.67 735.67 L265.67 734.00 L264.00 733.33 L263.33 732.33 L263.00 730.00 L264.00 729.67 L261.67 728.67 L260.67 712.00 L259.67 711.67 L259.67 709.00 L260.67 708.67 L261.67 680.00 L262.67 677.67 L264.67 678.00 L264.33 680.33 L268.67 679.67 L269.67 676.00 L266.00 674.33 L264.67 672.33 L264.67 669.33 L265.33 667.67 L263.67 665.67 L262.33 662.00 L262.67 650.00 L259.67 648.67 L259.67 647.00 L260.67 646.67 L261.33 505.33 L262.67 501.00 L265.33 497.00 L266.33 497.33 L266.33 498.33 L265.00 501.67 L267.67 504.33 L268.67 502.33 L269.33 502.33 L271.00 504.33 L273.67 501.67 L278.00 501.00 L279.67 500.33 L280.33 499.33 L277.67 495.00 L274.33 493.67 L272.67 487.00 L270.00 487.00 L268.00 492.67 L265.67 491.00 L264.00 491.00 L262.33 488.33 L262.33 487.33 L264.33 485.67 L264.33 484.67 L268.33 481.33 L269.00 481.33 L270.00 483.00 L273.67 484.33 L273.00 480.33 L272.00 478.67 L272.00 477.33 L272.67 477.00 L273.00 475.67 L273.67 475.00 L276.67 475.67 L277.00 473.67 L279.33 473.33 L281.67 471.00 L281.00 467.67 L282.33 466.33 L286.67 465.00 L288.67 463.67 L290.67 463.67 L290.67 462.00 L292.33 461.67 L290.67 458.67 L291.33 456.33 L293.33 454.33 L295.00 453.67 L297.00 454.67 L299.67 452.00 L299.00 449.33 L303.00 445.00 L303.67 443.33 L308.67 442.67 L309.00 440.67 L314.67 439.67 L314.00 437.00 L316.67 436.67 L316.33 434.33 L315.33 433.00 L315.67 432.00 L317.33 432.00 L321.67 433.67 L321.67 428.00 L326.67 425.67 L327.00 423.67 L331.67 423.67 L331.67 422.00 L330.33 422.67 L328.67 422.33 L328.67 420.00 L333.00 419.67 L335.33 418.00 L332.00 416.33 L332.67 414.00 L334.00 412.67 L335.00 412.67 L338.33 409.33 L341.00 408.33 L345.67 403.67 L350.00 401.00 L352.67 398.33 L353.33 397.00 L353.33 394.00 L357.33 388.67 L358.00 388.67 L360.33 386.33 L366.33 387.67 L368.00 386.33 L369.00 384.33 L369.33 381.67 L367.33 380.67 L367.33 379.33 L371.33 376.00 L372.33 376.67 L374.33 376.00 L377.00 371.67 L380.67 371.00 L382.33 370.00 L384.67 366.00 L383.67 363.67 L384.67 362.67 L385.00 360.67 L385.67 360.00 L390.67 360.67 L394.67 356.67 L394.00 355.00 L394.00 353.00 L400.67 346.33 L403.33 342.67 L407.00 343.33 L409.67 340.67 L413.67 341.33 L414.33 336.67 L413.33 333.67 L420.00 326.67 L422.67 326.67 L424.67 324.00 L427.67 322.67 L427.00 319.00 L428.00 318.00 L430.67 318.67 L433.33 315.33 L432.33 314.00 L432.67 312.67 L439.33 305.33 L442.67 307.00 L445.67 307.33 L448.00 306.33 L450.67 304.00 L452.33 299.67 L452.33 296.33 L454.67 296.33 L455.67 294.67 L456.67 294.67 L456.67 288.67ZM779.67 285.00 L783.67 284.33 L791.33 284.33 L792.00 285.67 L780.00 286.00Z"/>
</svg>
